<svg xmlns="http://www.w3.org/2000/svg" viewBox="0 0 362.85 207.31"><defs><style>.cls-1{fill:#fff;}</style></defs><title>gotaAtivo 1</title><g id="Camada_2" data-name="Camada 2"><g id="Camada_1-2" data-name="Camada 1"><path class="cls-1" d="M206.81,105a48,48,0,1,1-96,0c0-26.51,48-90.56,48-90.56S206.81,78.52,206.81,105Z"/><path class="cls-1" d="M96.28,57.77V160.3a46.27,46.27,0,0,1-6.75,24,47,47,0,0,1-87-18H9.25a40.37,40.37,0,0,0,80.28-6V126.79a48.14,48.14,0,1,1,0-48.77V57.77Zm-7,44.51a41.14,41.14,0,1,0-41,41.26A41.25,41.25,0,0,0,89.28,102.28Z"/><path class="cls-1" d="M257.57,61.52H240.31v89h-7v-89h-16.5V54.77h16.5V0h7V54.77h17.26Z"/><path class="cls-1" d="M362.85,60.52V149.8h-7v-20a47.71,47.71,0,0,1-41,23.26,48,48,0,1,1,41-72.53v-20Zm-7,44.51a41.14,41.14,0,1,0-41,41.26A41.26,41.26,0,0,0,355.85,105Z"/></g></g></svg>